<svg xmlns="http://www.w3.org/2000/svg" xmlns:xlink="http://www.w3.org/1999/xlink" version="1.1" x="0px" y="0px"
  viewBox="0 0 43.746 62.5" style="enable-background:new 0 0 43.746 50;" xml:space="preserve">
  <g>
    <g>
      <path
        d="M31.996,9.375c1.137,2.557,2.273,13.353,0,13.353c-6.986,0,0-15.909-18.182-22.728c5.397,9.659,2.272,25-2.273,25    c-3.955,0-4.262-7.102-4.546-11.363C-6.639,22.728,0.178,50,22.906,50C50.178,50,47.906,15.909,31.996,9.375z M23.19,47.736    C10.665,46.99,7.802,31.743,15.613,27.18c0.017,2.356-0.044,6.285,2.133,6.414c2.506,0.146,4.729-8.203,2.071-13.698    c9.792,4.346,5.422,12.886,9.272,13.112c1.252,0.075,0.979-5.913,0.435-7.356C38.078,29.772,38.215,48.628,23.19,47.736z" />
    </g>
  </g>
</svg>